<svg id="Calque_1" data-name="Calque 1" xmlns="http://www.w3.org/2000/svg" viewBox="0 0 100 100">
  <defs>
    <style>
      .cls-1 {
        fill: #0c878f;
      }

      .cls-1, .cls-2 {
        fill-rule: evenodd;
      }

      .cls-2 {
        fill: #fff;
      }
    </style>
  </defs>
  <title>arduino-logo</title>
  <path class="cls-1" d="M72.32,27C72,27,72,27,71,27v0H27A23,23,0,0,0,27,73v0H71c1,0,1.09,0,1.43,0A23.25,23.25,0,0,0,95.74,50,23.23,23.23,0,0,0,72.32,27Z"/>
  <path class="cls-2" d="M72.67,71c-0.42,0-.84,0-1.25,0a20.83,20.83,0,0,1-15.07-6.21A44.66,44.66,0,0,1,50,56.69a44.65,44.65,0,0,1-6.35,8.1A20.9,20.9,0,0,1,27.33,71a21,21,0,1,1,.1-42,23.18,23.18,0,0,1,16.22,6.24A41,41,0,0,1,50,42.83a41,41,0,0,1,6.35-7.6A23.18,23.18,0,0,1,72.57,29,21,21,0,1,1,72.67,71ZM38.77,40.75A16,16,0,0,0,27.43,36.4,13.86,13.86,0,0,0,13.33,50a13.86,13.86,0,0,0,14.1,13.58h0.19a13.77,13.77,0,0,0,11-4.14c2.64-2.55,4.84-6,7.1-9.72A41.4,41.4,0,0,0,38.77,40.75ZM72.57,36.4a16,16,0,0,0-11.34,4.35,41.4,41.4,0,0,0-6.93,9c2.26,3.71,4.46,7.17,7.1,9.72a13.77,13.77,0,0,0,11,4.14h0.19A13.86,13.86,0,0,0,86.67,50,13.86,13.86,0,0,0,72.57,36.4ZM74,56H70V52H66V48h4V44h4v4h4v4H74v4ZM22,48H34v4H22V48Z"/>
</svg>
