<svg id="Calque_2" data-name="Calque 2" xmlns="http://www.w3.org/2000/svg" viewBox="0 0 270 220">
  <defs>
    <style>
      .cls-1 {
        fill: #3fba8b;
      }

      .cls-2 {
        fill: #fff;
      }
    </style>
  </defs>
  <title>carbide-logo</title>
  <g id="logo">
    <path id="hexa_bg" class="cls-1" d="M130.88,153.32L75.66,121.44a8.24,8.24,0,0,1-4.12-7.13V50.54a8.24,8.24,0,0,1,4.12-7.13l55.22-31.88a8.24,8.24,0,0,1,8.24,0l55.22,31.88a8.24,8.24,0,0,1,4.12,7.13v63.76a8.24,8.24,0,0,1-4.12,7.13l-55.22,31.88A8.24,8.24,0,0,1,130.88,153.32Z"/>
    <path id="c_logo" class="cls-2" d="M151.49,101.72l-13.81,8a5.37,5.37,0,0,1-5.37,0L112.72,98.38A5.37,5.37,0,0,1,110,93.73V71.11a5.37,5.37,0,0,1,2.68-4.65l19.59-11.31a5.37,5.37,0,0,1,5.37,0l13.81,8a10.4,10.4,0,0,0,10.79-.23l10-6.39a1.83,1.83,0,0,0-.07-3.13L138.91,34.13a7.83,7.83,0,0,0-7.83,0l-36,20.76a7.83,7.83,0,0,0-3.92,6.78v41.52A7.83,7.83,0,0,0,95.13,110l36,20.76a7.83,7.83,0,0,0,7.83,0l33.34-19.25a1.83,1.83,0,0,0,.07-3.13l-10-6.39A10.4,10.4,0,0,0,151.49,101.72Z"/>
  </g>
  <path id="carbide_txt" d="M20.52,188.32c0,8,4.23,13.12,11.42,13.12a15.28,15.28,0,0,0,6.51-1.35l1,5.24A18.9,18.9,0,0,1,31,207c-10.4,0-16.72-7.24-16.72-18.31,0-12,7.48-19.22,17.5-19.22a17.21,17.21,0,0,1,8,1.62l-1.31,5.29a14.56,14.56,0,0,0-6.42-1.4C25.34,174.93,20.52,179.58,20.52,188.32ZM63.44,200.1a46.8,46.8,0,0,0,.34,6.32H58.38L58,203.5H57.85a8.46,8.46,0,0,1-7,3.51c-4.76,0-7.44-3.83-7.44-7.83,0-6.64,5.3-10,14-9.94v-0.43c0-1.73-.63-4.59-4.81-4.59a11.61,11.61,0,0,0-6.37,1.94l-1.17-4.32a15.73,15.73,0,0,1,8.55-2.32c7.58,0,9.77,5.35,9.77,11.07v9.5Zm-5.83-6.53c-4.23-.11-8.26.92-8.26,4.91,0,2.59,1.51,3.78,3.4,3.78a4.91,4.91,0,0,0,4.67-3.62,5.27,5.27,0,0,0,.19-1.46v-3.62Zm18.76-8.42H76.17l-0.19-5h-5.2c0.15,2.38.19,4.91,0.19,8.48v17.82h6V192.81a12.63,12.63,0,0,1,.19-2.05c0.53-3,2.48-5,5.35-5a7.52,7.52,0,0,1,1.75.22v-6.26a5.67,5.67,0,0,0-1.41-.16C80.3,179.52,77.53,181.41,76.37,185.14ZM113,192.86c0,9.45-5.39,14.15-10.74,14.15a8,8,0,0,1-7.48-4.54h-0.1l-0.29,3.94h-5.1c0.1-1.78.19-4.7,0.19-7.4V168.07h6v15.66h0.1a8.34,8.34,0,0,1,7.58-4.21C108.93,179.52,113.06,184.87,113,192.86Zm-6.07.27c0-4.64-2-8.42-6-8.42-2.43,0-4.62,1.94-5.3,4.86a8.78,8.78,0,0,0-.19,1.73v4.27a8.12,8.12,0,0,0,.15,1.57,5.67,5.67,0,0,0,5.3,4.64C104.65,201.77,106.93,198.42,106.93,193.13Zm12.2,13.28h6v-26.3h-6v26.3Zm3-37.26a3.37,3.37,0,0,0-3.35,3.62,3.36,3.36,0,1,0,6.71,0C125.45,170.72,124.19,169.15,122.15,169.15ZM154.61,199c0,2.7.1,5.62,0.19,7.4h-5.35l-0.24-4.16h-0.1a8.38,8.38,0,0,1-7.73,4.75c-5.64,0-10.11-5.35-10.11-13.45,0-8.8,4.91-14,10.59-14a7.31,7.31,0,0,1,6.66,3.46h0.1v-14.9h6V199Zm-6-7.94a10.37,10.37,0,0,0-.15-1.73c-0.53-2.59-2.43-4.7-5.15-4.7-3.84,0-6,3.78-6,8.69s2.14,8.32,5.93,8.32a5.44,5.44,0,0,0,5.15-4.7,8.18,8.18,0,0,0,.19-1.94v-3.94Zm33.68,4H166.47c0.15,4.75,3.5,6.8,7.29,6.8a16.2,16.2,0,0,0,6.56-1.19l0.87,4.59a20.33,20.33,0,0,1-8.26,1.62c-7.68,0-12.2-5.24-12.2-13.28,0-7.29,4-14.15,11.57-14.15s10.21,7,10.21,12.8A18.12,18.12,0,0,1,182.31,195.13Zm-5.44-4.64c0-2.43-.92-6.43-4.91-6.43-3.69,0-5.25,3.73-5.49,6.43h10.4Z"/>
  <path id="_3D_txt" data-name="3D_txt" class="cls-1" d="M220.75,196.26c0,6.21-4.91,10.75-12.93,10.75a17.21,17.21,0,0,1-9.38-2.48l1.51-6.16a16.1,16.1,0,0,0,7.34,2.16c3.84,0,5.78-2.05,5.78-4.7,0-3.46-3.11-5-6.37-5h-3v-5.89h2.87c2.48-.05,5.64-1.08,5.64-4.05,0-2.11-1.56-3.67-4.67-3.67a13.38,13.38,0,0,0-6.61,2.11l-1.51-5.94a18.26,18.26,0,0,1,9.77-2.65c6.76,0,10.5,3.94,10.5,8.75,0,3.73-1.9,6.64-5.78,8.15v0.11A8.45,8.45,0,0,1,220.75,196.26Zm35-8.91c0,7-2.28,11.77-5.44,14.74-3.45,3.19-8.7,4.7-15.11,4.7a57.83,57.83,0,0,1-8.41-.54V170.5a59.63,59.63,0,0,1,10-.76c6.22,0,10.25,1.24,13.41,3.89C253.61,176.44,255.75,180.93,255.75,187.35Zm-7.87.27c0-7.56-3.94-11.56-10.3-11.56a13.92,13.92,0,0,0-3.35.32V200.2a12.29,12.29,0,0,0,2.58.16C243.5,200.42,247.87,196.32,247.87,187.62Z"/>
</svg>
