<svg id="Calque_2_-_copie" data-name="Calque 2 - copie" xmlns="http://www.w3.org/2000/svg" xmlns:xlink="http://www.w3.org/1999/xlink" viewBox="0 0 150 36.17">
  <defs>
    <style>
      .cls-1 {
        fill: #ffaa28;
      }

      .cls-2 {
        fill: #ff8e12;
      }

      .cls-3 {
        fill: url(#Dégradé_sans_nom);
      }

      .cls-4 {
        fill: url(#Dégradé_sans_nom_2);
      }

      .cls-5 {
        fill: #fff;
      }

      .cls-6 {
        fill: #1b1464;
      }
    </style>
    <linearGradient id="Dégradé_sans_nom" data-name="Dégradé sans nom" x1="75" y1="37.06" x2="75" y2="2.99" gradientTransform="matrix(1, 0, 0, -1, 0, 38.17)" gradientUnits="userSpaceOnUse">
      <stop offset="0.64" stop-color="#fff" stop-opacity="0"/>
      <stop offset="1" stop-color="#fff" stop-opacity="0.7"/>
    </linearGradient>
    <linearGradient id="Dégradé_sans_nom_2" data-name="Dégradé sans nom 2" x1="75" y1="37.17" x2="75" y2="27.79" gradientTransform="matrix(1, 0, 0, -1, 0, 38.17)" gradientUnits="userSpaceOnUse">
      <stop offset="0" stop-color="#fff"/>
      <stop offset="1" stop-color="#fff" stop-opacity="0.05"/>
    </linearGradient>
  </defs>
  <title>contribute-bt</title>
  <g>
    <path class="cls-1" d="M18.09,35.69a17.6,17.6,0,0,1,0-35.2H131.91a17.6,17.6,0,0,1,0,35.19H18.09Z"/>
    <path class="cls-2" d="M131.91,1a17.1,17.1,0,0,1,0,34.2H18.09a17.1,17.1,0,0,1,0-34.2H131.91m0-1H18.09A18.09,18.09,0,0,0,0,18.09H0A18.09,18.09,0,0,0,18.09,36.17H131.91A18.09,18.09,0,0,0,150,18.09h0A18.09,18.09,0,0,0,131.91,0h0Z"/>
  </g>
  <path id="glow-bottom" class="cls-3" d="M18.09,1H132.91A16.08,16.08,0,0,1,149,17.09h0a18.09,18.09,0,0,1-18.09,18.09H18.09A17.09,17.09,0,0,1,1,18.09H1A17.09,17.09,0,0,1,18.09,1Z"/>
  <path id="glow-top" class="cls-4" d="M135.25,19.48H15.75C10.39,19.48,5,15.1,5,9.74H5C5,4.38,12.4,1,17.75,1H131.25C136.6,1,145,4.38,145,9.74h0A9.74,9.74,0,0,1,135.25,19.48Z"/>
  <path id="bevel" class="cls-5" d="M24.28,18.35A6.59,6.59,0,0,0,24.06,20a4,4,0,0,0,.15,1.12,2.81,2.81,0,0,0,.46.94,2.23,2.23,0,0,0,.8.65,2.64,2.64,0,0,0,1.18.24,2.56,2.56,0,0,0,1-.19,2.76,2.76,0,0,0,.81-0.49A2.94,2.94,0,0,0,29,21.56a2.65,2.65,0,0,0,.32-0.86h2.51a9.06,9.06,0,0,1-.9,2,5.33,5.33,0,0,1-1.17,1.35,4.12,4.12,0,0,1-1.44.75,6.11,6.11,0,0,1-1.72.23,5.13,5.13,0,0,1-3.75-1.3A5,5,0,0,1,21.54,20,8,8,0,0,1,22,17.38a6.8,6.8,0,0,1,1.24-2.2,6.14,6.14,0,0,1,6.41-1.8,4.12,4.12,0,0,1,1.46.81,3.6,3.6,0,0,1,1,1.33,4.48,4.48,0,0,1,.32,1.83H29.85a1.91,1.91,0,0,0-2-2.13,3.12,3.12,0,0,0-1.67.44A3.71,3.71,0,0,0,25,16.8,5.22,5.22,0,0,0,24.28,18.35Zm20.07-2.46A5.72,5.72,0,0,1,44.71,18a8.64,8.64,0,0,1-.42,2.69,6.93,6.93,0,0,1-1.21,2.25,5.7,5.7,0,0,1-2,1.54,6,6,0,0,1-2.66.57,5.13,5.13,0,0,1-3.75-1.3A5,5,0,0,1,33.4,20a8,8,0,0,1,.43-2.64,6.8,6.8,0,0,1,1.24-2.2,5.85,5.85,0,0,1,4.57-2.07,6.66,6.66,0,0,1,2.1.31A4.08,4.08,0,0,1,44.35,15.89ZM42.2,18.18A4.63,4.63,0,0,0,42.06,17a2.58,2.58,0,0,0-.44-0.94,2.21,2.21,0,0,0-.78-0.64,2.64,2.64,0,0,0-1.18-.24,3.12,3.12,0,0,0-1.67.44,3.71,3.71,0,0,0-1.17,1.14,5.22,5.22,0,0,0-.68,1.55A6.59,6.59,0,0,0,35.91,20a4,4,0,0,0,.15,1.12,2.81,2.81,0,0,0,.46.94,2.23,2.23,0,0,0,.8.65A2.64,2.64,0,0,0,38.5,23a2.92,2.92,0,0,0,1.62-.44,3.9,3.9,0,0,0,1.15-1.14,5.26,5.26,0,0,0,.7-1.54A6.31,6.31,0,0,0,42.2,18.18Zm11.14,3.33h0l-3.1-8.13H47.61l-2.4,11.42h2.34l1.63-8h0l3.14,8h2.51l2.42-11.42H55ZM68,13.38H58.42L58,15.49h3.58l-2,9.31h2.53l2-9.31h3.42ZM77.85,15a3.66,3.66,0,0,1,.24,1.41,3.21,3.21,0,0,1-.19,1.1,3,3,0,0,1-.54.94,3.11,3.11,0,0,1-.83.68,2.94,2.94,0,0,1-1.06.35v0a1.42,1.42,0,0,1,.94.78,3.07,3.07,0,0,1,.24,1.24q0,0.38,0,.92c0,0.36,0,.71,0,1.06s0,0.5,0,.73a2.37,2.37,0,0,0,.13.6H74.28c0-.14-0.06-0.27-0.08-0.39a2.18,2.18,0,0,1,0-.37,10.55,10.55,0,0,1,.06-1.16,10.61,10.61,0,0,0,.06-1.16A1.65,1.65,0,0,0,74.18,21a1.07,1.07,0,0,0-.34-0.42,1.25,1.25,0,0,0-.52-0.22,3.74,3.74,0,0,0-.67-0.06H70.28l-0.94,4.46h-2.5l2.38-11.42h5.46a5.51,5.51,0,0,1,1.4.14,2.71,2.71,0,0,1,1.08.51A2.32,2.32,0,0,1,77.85,15Zm-2.27,1.78A1.56,1.56,0,0,0,75.42,16,1,1,0,0,0,75,15.57a1.68,1.68,0,0,0-.59-0.19,5,5,0,0,0-.7,0H71.34l-0.67,3.22H73a4.46,4.46,0,0,0,1-.1,2.78,2.78,0,0,0,.82-0.32,1.7,1.7,0,0,0,.58-0.56A1.51,1.51,0,0,0,75.58,16.74Zm5.21-3.36-2.4,11.42H80.9l2.42-11.42H80.79Zm13,1.34A3,3,0,0,1,94,16.05a3.1,3.1,0,0,1-.14.94,2.59,2.59,0,0,1-.42.82,2.51,2.51,0,0,1-.67.6,2.25,2.25,0,0,1-.9.3v0a2.17,2.17,0,0,1,1.26.86,2.5,2.5,0,0,1,.44,1.46,3.53,3.53,0,0,1-.36,1.63,3.37,3.37,0,0,1-1,1.17,4.38,4.38,0,0,1-1.39.71,5.59,5.59,0,0,1-1.65.24H83.13l2.38-11.42h4.8a9.73,9.73,0,0,1,1.55.11A3.19,3.19,0,0,1,93,13.9,2,2,0,0,1,93.77,14.72ZM91.06,21a1.19,1.19,0,0,0-.18-0.7,1.22,1.22,0,0,0-.47-0.39,1.91,1.91,0,0,0-.64-0.17q-0.35,0-.69,0H86.62l-0.67,3.14H89.1a2.13,2.13,0,0,0,1.42-.46A1.7,1.7,0,0,0,91.06,21Zm0.45-4.51a1,1,0,0,0-.36-0.92,1.68,1.68,0,0,0-1-.25H87.53L87,18h2.85A1.94,1.94,0,0,0,91,17.63,1.32,1.32,0,0,0,91.51,16.5Zm12.7-3.12-1.42,6.77q-0.15.64-.31,1.17a2.66,2.66,0,0,1-.46.89,2,2,0,0,1-.78.56A3.25,3.25,0,0,1,100,23a3.05,3.05,0,0,1-1.07-.16,1.94,1.94,0,0,1-.66-0.39,1.22,1.22,0,0,1-.33-0.5,1.58,1.58,0,0,1-.09-0.48,2.62,2.62,0,0,1,0-.33c0-.12,0-0.25.06-0.39L98,20.32,98.09,20l1.39-6.61H97L95.58,20l-0.16.84a4.57,4.57,0,0,0-.08.86,3,3,0,0,0,.39,1.59,3.07,3.07,0,0,0,1,1,4.52,4.52,0,0,0,1.44.57,7.69,7.69,0,0,0,1.64.18,6.81,6.81,0,0,0,2.26-.33,4.17,4.17,0,0,0,1.57-1,4.71,4.71,0,0,0,1-1.58,12.06,12.06,0,0,0,.65-2.18l1.39-6.64h-2.51ZM111,15.49h6.21l0.43-2.11h-8.72l-2.38,11.42h8.8l0.45-2.11h-6.3l0.59-2.8h5.74l0.42-2h-5.74Zm17.46,0.88a3.21,3.21,0,0,1-.19,1.1,3,3,0,0,1-.54.94,3.11,3.11,0,0,1-.83.68,2.94,2.94,0,0,1-1.06.35v0a1.42,1.42,0,0,1,.94.78,3.07,3.07,0,0,1,.24,1.24q0,0.38,0,.92c0,0.36,0,.71,0,1.06s0,0.5,0,.73a2.37,2.37,0,0,0,.13.6h-2.45c0-.14-0.06-0.27-0.08-0.39a2.18,2.18,0,0,1,0-.37,10.55,10.55,0,0,1,.06-1.16,10.61,10.61,0,0,0,.06-1.16,1.65,1.65,0,0,0-.12-0.68,1.07,1.07,0,0,0-.34-0.42,1.25,1.25,0,0,0-.52-0.22,3.74,3.74,0,0,0-.67-0.06h-2.37l-0.94,4.46h-2.5l2.38-11.42H125a5.51,5.51,0,0,1,1.4.14,2.71,2.71,0,0,1,1.08.51,2.32,2.32,0,0,1,.69.94A3.66,3.66,0,0,1,128.46,16.37Zm-2.51.37a1.56,1.56,0,0,0-.15-0.74,1,1,0,0,0-.41-0.42,1.68,1.68,0,0,0-.59-0.19,5,5,0,0,0-.7,0H121.7L121,18.55h2.32a4.46,4.46,0,0,0,1-.1,2.78,2.78,0,0,0,.82-0.32,1.7,1.7,0,0,0,.58-0.56A1.51,1.51,0,0,0,125.94,16.74Z"/>
  <path id="txt" class="cls-6" d="M24.28,17.35A6.59,6.59,0,0,0,24.06,19a4,4,0,0,0,.15,1.12,2.81,2.81,0,0,0,.46.94,2.23,2.23,0,0,0,.8.65,2.64,2.64,0,0,0,1.18.24,2.56,2.56,0,0,0,1-.19,2.76,2.76,0,0,0,.81-0.49A2.94,2.94,0,0,0,29,20.56a2.65,2.65,0,0,0,.32-0.86h2.51a9.06,9.06,0,0,1-.9,2,5.33,5.33,0,0,1-1.17,1.35,4.12,4.12,0,0,1-1.44.75,6.11,6.11,0,0,1-1.72.23,5.13,5.13,0,0,1-3.75-1.3A5,5,0,0,1,21.54,19,8,8,0,0,1,22,16.38a6.8,6.8,0,0,1,1.24-2.2,6.14,6.14,0,0,1,6.41-1.8,4.12,4.12,0,0,1,1.46.81,3.6,3.6,0,0,1,1,1.33,4.48,4.48,0,0,1,.32,1.83H29.85a1.91,1.91,0,0,0-2-2.13,3.12,3.12,0,0,0-1.67.44A3.71,3.71,0,0,0,25,15.8,5.22,5.22,0,0,0,24.28,17.35Zm20.07-2.46A5.72,5.72,0,0,1,44.71,17a8.64,8.64,0,0,1-.42,2.69,6.93,6.93,0,0,1-1.21,2.25,5.7,5.7,0,0,1-2,1.54,6,6,0,0,1-2.66.57,5.13,5.13,0,0,1-3.75-1.3A5,5,0,0,1,33.4,19a8,8,0,0,1,.43-2.64,6.8,6.8,0,0,1,1.24-2.2,5.85,5.85,0,0,1,4.57-2.07,6.66,6.66,0,0,1,2.1.31A4.08,4.08,0,0,1,44.35,14.89ZM42.2,17.18A4.63,4.63,0,0,0,42.06,16a2.58,2.58,0,0,0-.44-0.94,2.21,2.21,0,0,0-.78-0.64,2.64,2.64,0,0,0-1.18-.24,3.12,3.12,0,0,0-1.67.44,3.71,3.71,0,0,0-1.17,1.14,5.22,5.22,0,0,0-.68,1.55A6.59,6.59,0,0,0,35.91,19a4,4,0,0,0,.15,1.12,2.81,2.81,0,0,0,.46.94,2.23,2.23,0,0,0,.8.65A2.64,2.64,0,0,0,38.5,22a2.92,2.92,0,0,0,1.62-.44,3.9,3.9,0,0,0,1.15-1.14,5.26,5.26,0,0,0,.7-1.54A6.31,6.31,0,0,0,42.2,17.18Zm11.14,3.33h0l-3.1-8.13H47.61l-2.4,11.42h2.34l1.63-8h0l3.14,8h2.51l2.42-11.42H55ZM68,12.38H58.42L58,14.49h3.58l-2,9.31h2.53l2-9.31h3.42ZM77.85,14a3.66,3.66,0,0,1,.24,1.41,3.21,3.21,0,0,1-.19,1.1,3,3,0,0,1-.54.94,3.11,3.11,0,0,1-.83.68,2.94,2.94,0,0,1-1.06.35v0a1.42,1.42,0,0,1,.94.78,3.07,3.07,0,0,1,.24,1.24q0,0.38,0,.92c0,0.36,0,.71,0,1.06s0,0.5,0,.73a2.37,2.37,0,0,0,.13.6H74.28c0-.14-0.06-0.27-0.08-0.39a2.18,2.18,0,0,1,0-.37,10.55,10.55,0,0,1,.06-1.16,10.61,10.61,0,0,0,.06-1.16A1.65,1.65,0,0,0,74.18,20a1.07,1.07,0,0,0-.34-0.42,1.25,1.25,0,0,0-.52-0.22,3.74,3.74,0,0,0-.67-0.06H70.28l-0.94,4.46h-2.5l2.38-11.42h5.46a5.51,5.51,0,0,1,1.4.14,2.71,2.71,0,0,1,1.08.51A2.32,2.32,0,0,1,77.85,14Zm-2.27,1.78A1.56,1.56,0,0,0,75.42,15,1,1,0,0,0,75,14.57a1.68,1.68,0,0,0-.59-0.19,5,5,0,0,0-.7,0H71.34l-0.67,3.22H73a4.46,4.46,0,0,0,1-.1,2.78,2.78,0,0,0,.82-0.32,1.7,1.7,0,0,0,.58-0.56A1.51,1.51,0,0,0,75.58,15.74Zm5.21-3.36-2.4,11.42H80.9l2.42-11.42H80.79Zm13,1.34A3,3,0,0,1,94,15.05a3.1,3.1,0,0,1-.14.94,2.59,2.59,0,0,1-.42.82,2.51,2.51,0,0,1-.67.6,2.25,2.25,0,0,1-.9.3v0a2.17,2.17,0,0,1,1.26.86,2.5,2.5,0,0,1,.44,1.46,3.53,3.53,0,0,1-.36,1.63,3.37,3.37,0,0,1-1,1.17,4.38,4.38,0,0,1-1.39.71,5.59,5.59,0,0,1-1.65.24H83.13l2.38-11.42h4.8a9.73,9.73,0,0,1,1.55.11A3.19,3.19,0,0,1,93,12.9,2,2,0,0,1,93.77,13.72ZM91.06,20a1.19,1.19,0,0,0-.18-0.7,1.22,1.22,0,0,0-.47-0.39,1.91,1.91,0,0,0-.64-0.17q-0.35,0-.69,0H86.62l-0.67,3.14H89.1a2.13,2.13,0,0,0,1.42-.46A1.7,1.7,0,0,0,91.06,20Zm0.45-4.51a1,1,0,0,0-.36-0.92,1.68,1.68,0,0,0-1-.25H87.53L87,17h2.85A1.94,1.94,0,0,0,91,16.63,1.32,1.32,0,0,0,91.51,15.5Zm12.7-3.12-1.42,6.77q-0.15.64-.31,1.17a2.66,2.66,0,0,1-.46.89,2,2,0,0,1-.78.56A3.25,3.25,0,0,1,100,22a3.05,3.05,0,0,1-1.07-.16,1.94,1.94,0,0,1-.66-0.39,1.22,1.22,0,0,1-.33-0.5,1.58,1.58,0,0,1-.09-0.48,2.62,2.62,0,0,1,0-.33c0-.12,0-0.25.06-0.39L98,19.32,98.09,19l1.39-6.61H97L95.58,19l-0.16.84a4.57,4.57,0,0,0-.08.86,3,3,0,0,0,.39,1.59,3.07,3.07,0,0,0,1,1,4.52,4.52,0,0,0,1.44.57,7.69,7.69,0,0,0,1.64.18,6.81,6.81,0,0,0,2.26-.33,4.17,4.17,0,0,0,1.57-1,4.71,4.71,0,0,0,1-1.58,12.06,12.06,0,0,0,.65-2.18l1.39-6.64h-2.51ZM111,14.49h6.21l0.43-2.11h-8.72l-2.38,11.42h8.8l0.45-2.11h-6.3l0.59-2.8h5.74l0.42-2h-5.74Zm17.46,0.88a3.21,3.21,0,0,1-.19,1.1,3,3,0,0,1-.54.94,3.11,3.11,0,0,1-.83.68,2.94,2.94,0,0,1-1.06.35v0a1.42,1.42,0,0,1,.94.78,3.07,3.07,0,0,1,.24,1.24q0,0.38,0,.92c0,0.36,0,.71,0,1.06s0,0.5,0,.73a2.37,2.37,0,0,0,.13.6h-2.45c0-.14-0.06-0.27-0.08-0.39a2.18,2.18,0,0,1,0-.37,10.55,10.55,0,0,1,.06-1.16,10.61,10.61,0,0,0,.06-1.16,1.65,1.65,0,0,0-.12-0.68,1.07,1.07,0,0,0-.34-0.42,1.25,1.25,0,0,0-.52-0.22,3.74,3.74,0,0,0-.67-0.06h-2.37l-0.94,4.46h-2.5l2.38-11.42H125a5.51,5.51,0,0,1,1.4.14,2.71,2.71,0,0,1,1.08.51,2.32,2.32,0,0,1,.69.94A3.66,3.66,0,0,1,128.46,15.37Zm-2.51.37a1.56,1.56,0,0,0-.15-0.74,1,1,0,0,0-.41-0.42,1.68,1.68,0,0,0-.59-0.19,5,5,0,0,0-.7,0H121.7L121,17.55h2.32a4.46,4.46,0,0,0,1-.1,2.78,2.78,0,0,0,.82-0.32,1.7,1.7,0,0,0,.58-0.56A1.51,1.51,0,0,0,125.94,15.74Z"/>
</svg>
