<?xml version="1.0" encoding="UTF-8" standalone="no"?>
<!-- Creator: BullzArtDesign - MF -->
<svg version="1.1" xmlns="http://www.w3.org/2000/svg" xmlns:xlink="http://www.w3.org/1999/xlink" x="0px" y="0px" viewBox="0 0 500 72" style="enable-background:new 0 0 500 72;" xml:space="preserve">
<style type="text/css">
	.color_one { fill:#222;}
	.color_two { fill-rule:evenodd;fill:#7B7B7B;}
</style>
  <rect id="bg-box" class="color_one" width="500" height="72"/>
  <path id="logo-inventables" class="color_two" d="M474.79,20.223a2.991,2.991,0,1,1,0-5.981A2.991,2.991,0,1,1,474.79,20.223Zm0-5.384a2.376,2.376,0,0,0,.018,4.75,2.268,2.268,0,0,0,2.247-2.357A2.292,2.292,0,0,0,474.79,14.839Zm0.684,2.466a0.874,0.874,0,0,1,.538.725,2.28,2.28,0,0,0,.216.743h-0.737a2.565,2.565,0,0,1-.233-0.725,0.52,0.52,0,0,0-.611-0.472h-0.324v1.2H473.64V15.8a5.907,5.907,0,0,1,1.133-.091,1.822,1.822,0,0,1,1.024.218,0.826,0.826,0,0,1,.288.652,0.761,0.761,0,0,1-.611.689V17.3ZM474.718,16.2a1.594,1.594,0,0,0-.377.037v0.852h0.323c0.378,0,.684-0.127.684-0.435C475.348,16.38,475.15,16.2,474.718,16.2Zm-34.349,9.967a2.981,2.981,0,0,0-.994,2.229,2.815,2.815,0,0,0,.994,2.229,3.115,3.115,0,0,0,2.21,1h16.687a11.611,11.611,0,0,1,8.729,3.9,12.351,12.351,0,0,1,3.757,9.027,13.144,13.144,0,0,1-3.646,9.138,11.612,11.612,0,0,1-8.73,3.9H431.418V46.782h26.3a2.938,2.938,0,0,0,2.211-1,3.22,3.22,0,0,0,.994-2.34,2.981,2.981,0,0,0-.994-2.229,2.937,2.937,0,0,0-2.211-1H441.032a11.615,11.615,0,0,1-8.73-3.9,13,13,0,0,1,0-18.053,11.236,11.236,0,0,1,8.73-3.9h27.847v10.81h-26.3A2.773,2.773,0,0,0,440.369,26.166ZM414.622,40.1h-19.78v3.232a3.22,3.22,0,0,0,.994,2.34,3.115,3.115,0,0,0,2.21,1h26.19v10.81H397.383a12.974,12.974,0,0,1-9.5-4.012,13.2,13.2,0,0,1-3.978-9.584V27.726a13.1,13.1,0,0,1,3.867-9.472,12.8,12.8,0,0,1,9.5-4.012H414.4a11.213,11.213,0,0,1,8.619,3.9,12.843,12.843,0,0,1,3.868,9.027,12.693,12.693,0,0,1-3.647,9.027A11.17,11.17,0,0,1,414.622,40.1Zm0.552-14.153a3.15,3.15,0,0,0-2.32-.891H397.825a2.773,2.773,0,0,0-2.21,1,2.981,2.981,0,0,0-.994,2.229v3.232h18.233a3.34,3.34,0,0,0,2.32-.892,2.821,2.821,0,0,0,.884-2.34A3.205,3.205,0,0,0,415.174,25.943Zm-68.07-11.7h10.719V46.671h24.2v10.81H347.1V14.242Zm-5.636,39.673a11.627,11.627,0,0,1-8.619,3.566h-30.61V14.242h30.61a12.067,12.067,0,0,1,8.619,3.566,11.689,11.689,0,0,1,3.647,8.581,10.07,10.07,0,0,1-5.526,9.473,10.07,10.07,0,0,1,5.526,9.472A11.513,11.513,0,0,1,341.468,53.915ZM333.4,26.054a2.934,2.934,0,0,0-2.21-1H312.958v6.464h18.233a2.934,2.934,0,0,0,2.21-1,2.816,2.816,0,0,0,1-2.229A2.982,2.982,0,0,0,333.4,26.054Zm0,15.156a2.934,2.934,0,0,0-2.21-1H312.958v6.464h18.233a2.934,2.934,0,0,0,2.21-1,2.816,2.816,0,0,0,1-2.229A2.982,2.982,0,0,0,333.4,41.21ZM260.247,53.58a13.135,13.135,0,0,1,0-18.165,11.235,11.235,0,0,1,8.73-3.9h19.891V28.283a2.982,2.982,0,0,0-1-2.229,2.934,2.934,0,0,0-2.21-1h-26.3V14.242h26.853a12.562,12.562,0,0,1,9.393,4.012,12.948,12.948,0,0,1,3.978,9.473V57.481h-30.61A11.613,11.613,0,0,1,260.247,53.58Zm10.388-6.8h18.233V40.207H270.635a3.168,3.168,0,0,0-2.321,1,2.981,2.981,0,0,0-.994,2.229,3.22,3.22,0,0,0,.994,2.34A3.169,3.169,0,0,0,270.635,46.782Zm-27.847,10.7h-10.83V25.051H218.477V14.242h37.571v10.81h-13.26V57.481ZM205.879,28.84a3.636,3.636,0,0,0-1.1-2.675,3.575,3.575,0,0,0-2.652-1.114H184.441V57.481H173.722V14.242h29.5a12.56,12.56,0,0,1,9.393,4.012,12.948,12.948,0,0,1,3.978,9.473V57.481H205.879V28.84ZM159.467,40.1h-19.89v3.232a3.22,3.22,0,0,0,.994,2.34,3.115,3.115,0,0,0,2.21,1h26.3v10.81H142.229a12.976,12.976,0,0,1-9.5-4.012,13.2,13.2,0,0,1-3.978-9.584V27.726a12.77,12.77,0,0,1,3.978-9.472,12.8,12.8,0,0,1,9.5-4.012h17.128a11.38,11.38,0,0,1,8.619,3.9,12.858,12.858,0,0,1,.111,18.054A11.171,11.171,0,0,1,159.467,40.1Zm0.663-14.153a3.15,3.15,0,0,0-2.32-.891H142.781a2.773,2.773,0,0,0-2.21,1,2.981,2.981,0,0,0-.994,2.229v3.232H157.81a3.34,3.34,0,0,0,2.32-.892A3.54,3.54,0,0,0,160.13,25.943ZM102.005,57.481L86.424,14.242H98.248l9.614,31.2,9.614-31.2H129.41L113.829,57.481H102.005Zm-15.028,0H76.258V28.84a3.637,3.637,0,0,0-1.105-2.675A3.576,3.576,0,0,0,72.5,25.051H54.82V57.481H44.1V14.242h29.5A12.56,12.56,0,0,1,83,18.253a12.948,12.948,0,0,1,3.978,9.473V57.481ZM29.735,14.242H40.454V57.481H29.735V14.242Z"/>
</svg>