<?xml version="1.0" encoding="UTF-8" standalone="no"?>
<!-- Creator: ArtFaks - MF -->
<svg version="1.1" xmlns="http://www.w3.org/2000/svg" xmlns:xlink="http://www.w3.org/1999/xlink" x="0px" y="0px" viewBox="0 0 558 345" style="enable-background:new 0 0 558 345;" xml:space="preserve">
<style type="text/css">
	.cls-1 { fill-rule:evenodd;clip-rule:evenodd;fill:#FFF;}
</style>
<path d="M557.000,229.693 L537.758,248.924 C495.249,248.924 460.789,214.484 460.789,172.000 L460.789,19.231 C460.789,8.610 469.404,-0.000 480.031,-0.000 C490.658,-0.000 499.273,8.610 499.273,19.231 L499.273,172.000 C499.273,193.242 516.504,210.462 537.758,210.462 L557.000,229.693 ZM172.694,172.000 L172.694,229.693 C172.694,240.314 181.309,248.924 191.937,248.924 C202.564,248.924 211.179,240.314 211.179,229.693 L211.179,172.000 C211.179,150.759 228.409,133.539 249.663,133.539 L278.796,133.539 L278.796,95.077 L249.663,95.077 C207.155,95.077 172.694,129.517 172.694,172.000 ZM365.117,95.077 L365.117,95.077 L335.984,95.077 L335.984,133.539 L365.117,133.539 C380.682,133.539 394.715,142.910 400.671,157.281 C406.628,171.653 403.334,188.196 392.328,199.195 C381.321,210.195 364.769,213.487 350.389,207.534 C336.009,201.581 326.632,187.557 326.632,172.000 L326.632,19.231 L307.390,-0.000 L288.148,19.231 L288.148,172.000 C288.148,203.113 306.901,231.162 335.662,243.068 C364.422,254.973 397.526,248.391 419.539,226.391 C441.552,204.391 448.139,171.306 436.226,142.563 C424.313,113.819 396.248,95.077 365.117,95.077 ZM153.991,172.000 L153.991,267.078 C153.991,309.561 119.531,344.001 77.022,344.001 C66.399,343.995 57.791,335.387 57.791,324.770 C57.791,314.153 66.399,305.545 77.022,305.539 C98.276,305.539 115.506,288.319 115.506,267.078 L115.506,229.693 L96.264,248.924 L77.022,248.924 C45.891,248.924 17.825,230.182 5.913,201.438 C-6.000,172.694 0.587,139.610 22.600,117.610 C44.612,95.610 77.717,89.027 106.477,100.933 C135.238,112.839 153.991,140.888 153.991,172.000 ZM115.506,229.693 L115.506,172.000 C115.506,156.444 106.130,142.419 91.750,136.467 C77.369,130.514 60.817,133.805 49.811,144.805 C38.804,155.805 35.511,172.347 41.467,186.719 C47.424,201.091 61.457,210.462 77.022,210.462 L77.022,210.462 L96.264,210.462 L115.506,229.693 Z" class="cls-1"/>
</svg>