<svg id="Calque_1" data-name="Calque 1" xmlns="http://www.w3.org/2000/svg" viewBox="0 0 200 220">
  <defs>
    <style>
      .cls-1 {
        fill: none;
        stroke: #000;
        stroke-miterlimit: 10;
        stroke-width: 2px;
      }

      .cls-1, .cls-2, .cls-3 {
        fill-rule: evenodd;
      }

      .cls-3 {
        fill: #fff;
      }
    </style>
  </defs>
  <title>Sans titre - 3</title>
  <g>
    <path id="global_bg" class="cls-1" d="M25,1.5H175a22,22,0,0,1,22,22v183a12,12,0,0,1-12,12H15a12,12,0,0,1-12-12V23.5A22,22,0,0,1,25,1.5Z"/>
    <path id="txt" class="cls-2" d="M84.39,207.46a4.69,4.69,0,0,1-2.89-1,5,5,0,0,1-1.77-2.65L76,191.1a2.43,2.43,0,0,0-.34-0.82,0.34,0.34,0,0,0-.32-0.14c-0.31,0-.88,0-0.88,1.3v15.84H70V191.07a6.3,6.3,0,0,1,.4-2.27A5.18,5.18,0,0,1,71.5,187a5,5,0,0,1,1.69-1.14,5.49,5.49,0,0,1,2.09-.4,4.7,4.7,0,0,1,2.86.94,5,5,0,0,1,1.78,2.64l3.76,12.78a2.43,2.43,0,0,0,.35.78,0.34,0.34,0,0,0,.31.12c0.31,0,.88,0,0.88-1.3V185.54H89.7v16.3a6.09,6.09,0,0,1-.42,2.3,5.55,5.55,0,0,1-1.13,1.77,4.91,4.91,0,0,1-1.7,1.15A5.39,5.39,0,0,1,84.39,207.46Zm87.16-.18v-4.65h10.68a1.24,1.24,0,0,0,1-.54,2.3,2.3,0,0,0,.46-1.47,2.21,2.21,0,0,0-.46-1.41,1.24,1.24,0,0,0-1-.54H177a6.79,6.79,0,0,1-3-.59,5.58,5.58,0,0,1-2-1.56,6.18,6.18,0,0,1-1.09-2.11,8.1,8.1,0,0,1-.33-2.26,8.78,8.78,0,0,1,.35-2.51,5.77,5.77,0,0,1,1.15-2.13,5.5,5.5,0,0,1,2-1.46,7.26,7.26,0,0,1,2.88-.52h9.79v4.65H176.51a1.25,1.25,0,0,0-.58.14,1.68,1.68,0,0,0-.51.41,2.24,2.24,0,0,0-.37.63,2,2,0,0,0-.14.73,2,2,0,0,0,.49,1.39,1.45,1.45,0,0,0,1.14.54h5.15a6.36,6.36,0,0,1,4.61,1.66,6.55,6.55,0,0,1,1.72,4.89v0.15a6.57,6.57,0,0,1-1.71,4.89,6.44,6.44,0,0,1-4.68,1.66H171.55Zm-19.35,0V185.54h8.2c5.92,0,8.93,3.64,8.93,10.82s-3.07,10.91-9,10.91H152.2Zm9-4.65a3.18,3.18,0,0,0,2.88-1.41,9.2,9.2,0,0,0,1-4.89c0-4.12-1.26-6.13-3.85-6.13h-4.74v12.43h4.71Zm-16.56,4.65a9.94,9.94,0,0,1-3.78-.67,7.38,7.38,0,0,1-2.76-1.93,8.11,8.11,0,0,1-1.66-3,13,13,0,0,1-.54-3.85V185.54h4.27v12.28a5.11,5.11,0,0,0,1.15,3.57,4.1,4.1,0,0,0,3.21,1.24h6.17v4.65h-6.07Zm-15.42,0V185.54h4.27v21.73H129.2Zm-10.74,0a9.73,9.73,0,0,1-3.56-.61,7.14,7.14,0,0,1-4.26-4.39,9.93,9.93,0,0,1-.54-3.33V185.54h4.27v13.3a3.61,3.61,0,0,0,1.08,2.73,4.17,4.17,0,0,0,3.07,1.06,3.51,3.51,0,0,0,4-3.79v-13.3h4.27v13.38a10.6,10.6,0,0,1-.51,3.38,6.86,6.86,0,0,1-4.2,4.37A9.93,9.93,0,0,1,118.46,207.28Zm-26.46,0V185.54h9.79a7.63,7.63,0,0,1,2.91.5,5.3,5.3,0,0,1,2,1.43,5.59,5.59,0,0,1,1.12,2.13,9.4,9.4,0,0,1,.33,2.55,6.45,6.45,0,0,1-.53,2.48,4.64,4.64,0,0,1-1.21,1.7,4.62,4.62,0,0,1,1.21,1.68,6.68,6.68,0,0,1,.53,2.62,8.82,8.82,0,0,1-.33,2.39,5.86,5.86,0,0,1-1.12,2.16,5.74,5.74,0,0,1-2,1.52,6.87,6.87,0,0,1-2.95.57H92Zm10.28-4.65a1.42,1.42,0,0,0,1.16-.54,2.3,2.3,0,0,0,.48-1.53,1.92,1.92,0,0,0-.14-0.72,2.28,2.28,0,0,0-.37-0.62,1.7,1.7,0,0,0-.51-0.4,1.23,1.23,0,0,0-.58-0.14H97V194h5.24a1.43,1.43,0,0,0,1.16-.53,2.09,2.09,0,0,0,.48-1.4,2,2,0,0,0-.14-0.73,2.26,2.26,0,0,0-.37-0.63,1.7,1.7,0,0,0-.51-0.41,1.24,1.24,0,0,0-.58-0.14H96.69v12.43h5.59Zm-44.38,4.65a7,7,0,0,1-3-.57,5.49,5.49,0,0,1-2-1.54,6.12,6.12,0,0,1-1.1-2.15,8.69,8.69,0,0,1-.33-2.38v-8.48a8.68,8.68,0,0,1,.38-2.6,5.78,5.78,0,0,1,1.18-2.12,5.37,5.37,0,0,1,2-1.39,7.47,7.47,0,0,1,2.81-.49H67.7v4.65H57.4a1.25,1.25,0,0,0-.58.14,1.68,1.68,0,0,0-.51.41,2.25,2.25,0,0,0-.37.63,1.92,1.92,0,0,0-.14.73,2.08,2.08,0,0,0,.47,1.4,1.43,1.43,0,0,0,1.16.53H67.7v4.65H57.4a1.24,1.24,0,0,0-.58.14,1.69,1.69,0,0,0-.51.4,2.23,2.23,0,0,0-.37.62,1.88,1.88,0,0,0-.14.72,2.3,2.3,0,0,0,.48,1.53,1.4,1.4,0,0,0,1.16.54H67.7v4.65H57.91Zm-24,0V185.54h9.81a7.16,7.16,0,0,1,2.85.52,5.45,5.45,0,0,1,2,1.46,5.94,5.94,0,0,1,1.15,2.12,8.54,8.54,0,0,1,.36,2.51,8.34,8.34,0,0,1-.33,2.31,5.89,5.89,0,0,1-1.11,2.12,5.68,5.68,0,0,1-2,1.52,6.9,6.9,0,0,1-2.93.57h-4a1.28,1.28,0,0,0-1.06.55,2.19,2.19,0,0,0-.47,1.41v6.64H33.94Zm4.27-13A7.89,7.89,0,0,1,40.3,194h3.92a1.45,1.45,0,0,0,1.14-.54,2,2,0,0,0,.49-1.39,1.93,1.93,0,0,0-.14-0.73,2.27,2.27,0,0,0-.37-0.63,1.69,1.69,0,0,0-.51-0.41,1.24,1.24,0,0,0-.58-0.14h-6v4.1ZM22,207.28c-6,0-9-3.65-9-10.85s3-10.88,9-10.88H23.4c5.91,0,8.94,3.63,9,10.79s-3,10.95-9,10.95H22ZM21.16,190.2a3.21,3.21,0,0,0-2.89,1.4,9,9,0,0,0-1,4.85c0,4.16,1.26,6.19,3.87,6.19h3.13c2.6,0,3.87-2,3.87-6.19a8.88,8.88,0,0,0-1-4.84,3.22,3.22,0,0,0-2.88-1.4H21.16Z"/>
    <path id="bg_black" class="cls-2" d="M30,8.5H170a20,20,0,0,1,20,20v130a20,20,0,0,1-20,20H30a20,20,0,0,1-20-20V28.5A20,20,0,0,1,30,8.5Z"/>
    <path id="cog" class="cls-3" d="M184,87.5v22l-19.66,3.64a64.57,64.57,0,0,1-8.58,20.37l11.42,16.61-15.56,15.56-16.91-11.62a64.88,64.88,0,0,1-7.13,3.76l-18.14-37.93a23,23,0,1,0-16.88,0L74.42,157.81a64.91,64.91,0,0,1-8.19-4.41L48.38,165.68,32.82,150.12,45.29,132a64.55,64.55,0,0,1-7.54-18.46L16,109.5v-22l21.77-4A64.6,64.6,0,0,1,45.29,65L32.82,46.88,48.38,31.32,66.23,43.59A64.61,64.61,0,0,1,86,35.27L90,13.5h22l4,21.77a64.61,64.61,0,0,1,18.71,7.66l16.88-11.61,15.56,15.56L155.75,63.49a64.61,64.61,0,0,1,8.57,20.36Z"/>
  </g>
</svg>
