<svg id="Calque_2" data-name="Calque 2" xmlns="http://www.w3.org/2000/svg" viewBox="0 0 290 70.5">
  <defs>
    <style>
      .cls-1 {
        fill: #fcee21;
      }

      .cls-1, .cls-2 {
        fill-rule: evenodd;
      }
    </style>
  </defs>
  <title>panucatt2</title>
  <g>
    <path id="circle" class="cls-1" d="M49.63,18.57l5.66-5.66,3,3-5.64,5.64A23,23,0,0,0,49.63,18.57Zm-5-3.11,4-7,3.68,2.12-4,6.95A22.79,22.79,0,0,0,44.61,15.46ZM39,13.75L41.05,6l4.1,1.1-2.08,7.77A22.68,22.68,0,0,0,39,13.75Zm-3.76-.31c-0.72,0-1.42,0-2.12.1V5.47h4.25v8.07C36.63,13.47,35.92,13.43,35.2,13.43Zm-7.87,1.39L25.25,7.06,29.35,6l2.09,7.79A22.68,22.68,0,0,0,27.33,14.83Zm-5.22,2.74-4-6.95L21.78,8.5l4,7A22.79,22.79,0,0,0,22.11,17.57Zm-4.36,4-5.64-5.64,3-3,5.66,5.66A23,23,0,0,0,17.75,21.55Zm-3.2,5-6.85-4L9.82,18.9l6.89,4A22.81,22.81,0,0,0,14.55,26.53Zm-1.81,5.65-7.58-2L6.26,26l7.62,2A22.66,22.66,0,0,0,12.74,32.18Zm-0.37,4.08c0,0.63,0,1.24.08,1.86H4.67V33.88H12.5A23.08,23.08,0,0,0,12.37,36.27ZM13.7,44L6.26,46l-1.1-4.1,7.49-2A22.66,22.66,0,0,0,13.7,44Zm2.74,5.32L9.82,53.1,7.7,49.43l6.66-3.84A22.79,22.79,0,0,0,16.45,49.28Zm4,4.44-5.37,5.37-3-3,5.4-5.4A23,23,0,0,0,20.49,53.72ZM25.55,57L21.78,63.5,18.1,61.38l3.79-6.57A22.81,22.81,0,0,0,25.55,57Zm5.75,1.8-2,7.28-4.1-1.1,2-7.29A22.67,22.67,0,0,0,31.3,58.76Zm3.9,0.34c0.72,0,1.42,0,2.12-.1v7.54H33.08V59C33.78,59.06,34.49,59.1,35.2,59.1Zm8-1.44,2,7.29L41.05,66l-2-7.28A22.67,22.67,0,0,0,43.2,57.65Zm5.31-2.84,3.79,6.57L48.63,63.5,44.85,57A22.81,22.81,0,0,0,48.51,54.81Zm4.38-4.12,5.4,5.4-3,3-5.37-5.37A23,23,0,0,0,52.9,50.69Z"/>
    <path id="txt" class="cls-2" d="M271,31.93a1.31,1.31,0,0,0-.43,1A1.46,1.46,0,0,0,272,34.32h7.27a5,5,0,0,1,3.79,1.7,5.64,5.64,0,0,1,0,7.86,5,5,0,0,1-3.79,1.69h-12.2V40.88h11.5a1.31,1.31,0,0,0,1-.43,1.36,1.36,0,0,0,.43-1,1.46,1.46,0,0,0-1.4-1.4h-7.27a5,5,0,0,1-3.81-1.7,5.62,5.62,0,0,1,0-7.85,5,5,0,0,1,3.81-1.7H283.5V31.5H272A1.36,1.36,0,0,0,271,31.93Zm-16,2.39h9.38v3.75H255v2.82h11.73v4.69H239.93a5.86,5.86,0,0,1-5.87-5.87v-7a5.89,5.89,0,0,1,5.87-5.85h9.37V31.5h-8.9a1.59,1.59,0,0,0-1.17.48,1.57,1.57,0,0,0-.48,1.15v6.1a1.64,1.64,0,0,0,1.65,1.65h9.9V26.81h15.24V31.5H255v2.82Zm-26-7.42-6.77,18.67H217l-6.77-18.76h5.14l4.22,13.52,4.22-13.52h9.82V45.57h-4.69V26.9Zm-29.38,7.42h9.38v3.75h-9.38v2.82h11.73v4.69H194.86V40.4a5.89,5.89,0,0,1-5.81,5.17h-12.9V26.81h12.9A5.93,5.93,0,0,1,194.86,32V26.81H210.1V31.5H199.55v2.82Zm-9.33-1.18a1.64,1.64,0,0,0-1.64-1.64h-7.75v9.38h7.75a1.57,1.57,0,0,0,1.15-.48,1.59,1.59,0,0,0,.48-1.17v-6.1ZM162.08,45.57h-4.69V31.5H145.84V45.57h-4.69V31.5h-5.78a6.07,6.07,0,0,1,.11,1.17v12.9H122.13a5,5,0,0,1-3.81-1.69,5.8,5.8,0,0,1-1.41-2.52v4.21H106.36a5.86,5.86,0,0,1-5.81-5.09,5.89,5.89,0,0,1-5.8,5.09h-7a5.86,5.86,0,0,1-5.83-5.17v5.17H77.2V33.13a1.64,1.64,0,0,0-1.64-1.64H67.82V45.57H63.13V26.81H76A5.93,5.93,0,0,1,81.85,32V26.81h4.69V39.24a1.64,1.64,0,0,0,1.65,1.65h6.1a1.57,1.57,0,0,0,1.15-.48,1.59,1.59,0,0,0,.48-1.17V26.81h4.69v4.7a5.92,5.92,0,0,1,5.76-4.7h9.37V31.5h-8.9a1.59,1.59,0,0,0-1.17.48,1.57,1.57,0,0,0-.48,1.15v6.1a1.64,1.64,0,0,0,1.65,1.65h10a5.81,5.81,0,0,1-.08-0.95A5.6,5.6,0,0,1,118.33,36a5,5,0,0,1,3.81-1.7h8.67V32.9a1.46,1.46,0,0,0-1.4-1.4H117.9V26.81h11.73a5.6,5.6,0,0,1,4.12,1.73,5.66,5.66,0,0,1,1.53,2.59V26.81h32.66V31.5h-5.87V45.57Zm-31.28-7.5h-8a1.36,1.36,0,0,0-1,.43,1.31,1.31,0,0,0-.43,1,1.46,1.46,0,0,0,1.42,1.42h8V38.07ZM45.89,43.88a5.64,5.64,0,0,1,0-7.86,5,5,0,0,1,3.81-1.7h8.67V32.9A1.46,1.46,0,0,0,57,31.5H45.46V26.81H57.19A5.91,5.91,0,0,1,63,32.67v12.9H49.69A5,5,0,0,1,45.89,43.88Zm4.51-3h8V38.07h-8a1.36,1.36,0,0,0-1,.43,1.31,1.31,0,0,0-.43,1A1.46,1.46,0,0,0,50.39,40.88Zm-11.33,0H30.84v4.69H26.16V26.81h12.9a5.91,5.91,0,0,1,5.85,5.85V35A5.89,5.89,0,0,1,39.06,40.88Zm1.17-7.75a1.64,1.64,0,0,0-1.64-1.64H30.84v4.7h7.75a1.64,1.64,0,0,0,1.64-1.64V33.14Z"/>
  </g>
</svg>
