<svg id="Calque_1" data-name="Calque 1" xmlns="http://www.w3.org/2000/svg" viewBox="0 0 290 70.5">
  <defs>
    <style>
      .cls-1 {
        fill: #606060;
        fill-rule: evenodd;
      }
    </style>
  </defs>
  <title>panucatt-logo</title>
  <path class="cls-1" d="M269,10.49V31.37h-6.36V10.49h-12.3V4.13h31v6.36H269ZM236.13,31.37h-6.36V10.49h-12.3V4.13h31v6.36h-12.3V31.37Zm-26.92-8.64H192.46V16.37h16.75V12.56q0-2.07-1.38-2.07h-18q-1.33,0-1.33,2.06V31.37h-6.36V12.54a8.77,8.77,0,0,1,2.15-5.92,7,7,0,0,1,5.54-2.49h18a7,7,0,0,1,5.59,2.49,8.77,8.77,0,0,1,2.15,5.92V31.37h-6.36V22.73Zm-4.29,34.2H187.8a7.14,7.14,0,0,1-5.62-2.54,8.46,8.46,0,0,1-2.12-5.83,8.73,8.73,0,0,1,2.17-5.94,7.05,7.05,0,0,1,5.56-2.49h23.53v6.36H187.75q-1.33,0-1.33,2.07t1.33,2H204.9a7.18,7.18,0,0,1,5.63,2.54,9.35,9.35,0,0,1,0,11.73,7.15,7.15,0,0,1-5.62,2.54H181.38V61h23.53q1.32,0,1.32-2T204.92,56.93Zm-52.84-28a8.13,8.13,0,0,1-2.6-6.16v-10a8.13,8.13,0,0,1,2.6-6.16,8.83,8.83,0,0,1,6.31-2.46h21.09v6.36H158.38q-2.54,0-2.54,2.27v10q0,2.27,2.54,2.27h21.09v6.36H158.38A8.83,8.83,0,0,1,152.08,28.91Zm25.33,17.58H154.67v4.08h21.25v6.36H154.67V61h22.68v6.36h-29V40.13h29.1v6.36ZM139.09,31.37h-18a7,7,0,0,1-5.59-2.49,8.79,8.79,0,0,1-2.15-5.94V4.13h6.36V22.94q0,2.07,1.38,2.07h18.07q1.33,0,1.33-2.07V4.13h6.36V22.94a8.73,8.73,0,0,1-2.17,5.94A7.05,7.05,0,0,1,139.09,31.37Zm-32.44,8.76H113V67.37h-6.36V40.13ZM87.95,13V31.37H81.59V4.13h6.36l16.38,18.23V4.13h6.36V31.37h-6.36Zm-15.37,9.7H55.83V16.37H72.58V12.56q0-2.07-1.38-2.07h-18q-1.33,0-1.33,2.06V31.37H45.49V12.54a8.77,8.77,0,0,1,2.15-5.92,7,7,0,0,1,5.54-2.49h18a7,7,0,0,1,5.59,2.49,8.77,8.77,0,0,1,2.15,5.92V31.37H72.58V22.73Zm-37.47-.21h-20v8.85H8.71V4.13H35.11A6.81,6.81,0,0,1,40.83,7a10.13,10.13,0,0,1,2,6.31,9.9,9.9,0,0,1-2,6.25A6.8,6.8,0,0,1,35.11,22.52Zm0-12h-20v5.67h20q1.38,0,1.38-2.81T35.11,10.49ZM36,42.59a8.18,8.18,0,0,1,2.57,6.16v10A8.17,8.17,0,0,1,36,64.91a8.75,8.75,0,0,1-6.28,2.46h-21V50.2h6.36V61H29.8q2.44,0,2.45-2.27v-10q0-2.27-2.44-2.27H8.71V40.13h21A8.75,8.75,0,0,1,36,42.59Zm34.32,3.9H47.61v4.08H68.87v6.36H47.61V61H70.3v6.36h-29V40.13h29.1v6.36Zm17.86,12.3,9.43-18.66h7.1L90.86,67.37H85.46L71.52,40.13h7.1Zm36.36-18.66h21.09v6.36H124.57q-2.54,0-2.54,2.27v10Q122,61,124.57,61h21.09v6.36H124.57a8.83,8.83,0,0,1-6.31-2.46,8.13,8.13,0,0,1-2.6-6.16v-10a8.13,8.13,0,0,1,2.6-6.16A8.83,8.83,0,0,1,124.57,40.13Z"/>
</svg>
