<svg id="Calque_1" data-name="Calque 1" xmlns="http://www.w3.org/2000/svg" viewBox="0 0 340 220">
  <defs>
    <style>
      .cls-1 {
        fill: #fff;
      }

      .cls-2 {
        fill: #b22234;
      }

      .cls-3 {
        fill: #3c3b6e;
      }
    </style>
  </defs>
  <title>us-flag</title>
  <rect id="white" class="cls-1" width="340" height="220"/>
  <path id="red" class="cls-2" d="M340,0V16.92H0V0H340ZM0,50.77H340V33.85H0V50.77ZM0,84.62H340V67.69H0V84.62Zm0,33.85H340V101.54H0v16.92Zm0,33.85H340V135.38H0v16.92Zm0,33.85H340V169.23H0v16.92ZM0,220H340V203.08H0V220Z"/>
  <rect id="blue" class="cls-3" width="160" height="118.46"/>
  <path id="stars" class="cls-1" d="M27.4,18h8.87L29.1,23.46l2.74,8.81-7.17-5.45-7.17,5.45,2.74-8.81L13.06,18h8.87L24.66,9.2ZM61.81,9.2L59.07,18H50.2l7.17,5.45-2.74,8.81,7.17-5.45L69,32.27l-2.74-8.81L73.42,18H64.55Zm35.29,0L94.36,18H85.49l7.17,5.45-2.74,8.81,7.17-5.45,7.17,5.45-2.74-8.81L108.7,18H99.84Zm30,23.07,7.17-5.45,7.17,5.45-2.74-8.81L145.85,18H137L134.24,9.2,131.5,18h-8.87l7.17,5.45ZM24.66,44l-2.74,8.81H13.06l7.17,5.45-2.74,8.81,7.17-5.45,7.17,5.45L29.1,58.31l7.17-5.45H27.4Zm37.15,0-2.74,8.81H50.2l7.17,5.45-2.74,8.81,7.17-5.45L69,67.12l-2.74-8.81,7.17-5.45H64.55ZM97.1,44l-2.74,8.81H85.49l7.17,5.45-2.74,8.81,7.17-5.45,7.17,5.45-2.74-8.81,7.17-5.45H99.84Zm37.15,0-2.74,8.81h-8.87l7.17,5.45-2.74,8.81,7.17-5.45,7.17,5.45-2.74-8.81,7.17-5.45H137ZM27.4,88.68l-2.74-8.81-2.74,8.81H13.06l7.17,5.45-2.74,8.81,7.17-5.45,7.17,5.45L29.1,94.13l7.17-5.45H27.4Zm37.15,0-2.74-8.81-2.74,8.81H50.2l7.17,5.45-2.74,8.81,7.17-5.45L69,102.94l-2.74-8.81,7.17-5.45H64.55Zm35.29,0L97.1,79.87l-2.74,8.81H85.49l7.17,5.45-2.74,8.81L97.1,97.5l7.17,5.45-2.74-8.81,7.17-5.45H99.84Zm37.15,0-2.74-8.81-2.74,8.81h-8.87l7.17,5.45-2.74,8.81,7.17-5.45,7.17,5.45-2.74-8.81,7.17-5.45H137Z"/>
</svg>
